<svg xmlns="http://www.w3.org/2000/svg" width="196.825" height="200" viewBox="0 0 196.825 200"><path d="M23.81,0a23.8,23.8,0,0,0-1.42,47.551,95.255,95.255,0,1,0,152.028.019,23.805,23.805,0,1,0-25.211-23.76q.007.22.019.44a94.769,94.769,0,0,0-101.631.1q.015-.27.025-.539A23.81,23.81,0,0,0,23.81,0ZM61.186,52.121h.18A15,15,0,0,1,75.794,71.367,9.514,9.514,0,1,0,60.882,82.18a15.038,15.038,0,0,1,.3-30.06Zm74.275,0a15.039,15.039,0,1,1,.446,30.076,9.5,9.5,0,1,0-14.869-10.8,15,15,0,0,1,14.423-19.271ZM98.413,95.492c31.362,0,56.783,18.832,56.783,42.057S129.771,179.6,98.413,179.6,41.623,160.775,41.623,137.55,67.051,95.492,98.413,95.492Zm0,12.661c-10.473,0-18.961,5.611-18.961,12.525,0,6.22,6.89,11.334,15.892,12.308v16.425a3.069,3.069,0,1,0,6.138,0V132.986c9-.974,15.892-6.088,15.892-12.308C117.374,113.761,108.886,108.154,98.413,108.154ZM63.449,151.1c4.622,8.994,18.529,15.52,34.964,15.52s30.342-6.526,34.964-15.52a87.057,87.057,0,0,1-34.964,6.721A87.057,87.057,0,0,1,63.449,151.1Z"/></svg>